<svg xmlns="http://www.w3.org/2000/svg" viewBox="0 0 32 32">
  <path d="M15.9.087l.854 1.604c.192.296.4.558.645.802.715.715 1.394 1.464 2.004 2.266 1.447 1.9 2.423 4.01 3.12 6.292.418 1.394.645 2.824.662 4.27.07 4.323-1.412 8.035-4.4 11.12-.488.488-1.01.94-1.57 1.342-.296 0-.436-.227-.558-.436-.227-.383-.366-.82-.436-1.255-.105-.523-.174-1.046-.14-1.586v-.244C16.057 24.21 15.796.21 15.9.087z" fill="#599636"/>
  <path d="M15.9.034c-.035-.07-.07-.017-.105.017.017.35-.523 24.087-.523 24.087l.314 4.834.366-.7c.384-.767.627-1.587.767-2.415.14-.68.227-1.394.227-2.09-.053-3.477-.942-6.708-2.784-9.636-.296-.523-.61-1.046-.976-1.534-.105-.174-.192-.383-.296-.558-.34-.634-.662-1.287-.942-1.95-.105-.244-.122-.506-.087-.767.07-.384.314-.767.627-1.01.418-.348.907-.523 1.395-.558.523-.035 1.046.087 1.516.383.437.27.767.634 1.047 1.046.088.105.158.227.262.33.61.767 1.046 1.616 1.436 2.5.347.767.662 1.55.855 2.354.209.767.314 1.55.314 2.354.35.873-.087 1.73-.384 2.55-.296.873-.767 1.647-1.307 2.354-.655.87-1.458 1.6-2.354 2.196-.21.14-.366.36-.418.615-.087.384.052.767.26 1.01.174.244.436.41.7.436.464.07.94-.087 1.307-.384.245-.174.447-.4.675-.575 1.65-1.764 2.853-3.747 3.624-6.083.447-1.307.662-2.667.705-4.01.087-2.607-.47-5.018-1.533-7.277-1.047-2.09-2.44-3.9-4.358-5.33-.488-.36-1.01-.68-1.55-.976-.314-.17-.645-.34-.997-.417-.087-.017-.17-.052-.26-.052-.08-.02-.16-.02-.24-.02z" fill="#6cac48"/>
  <path d="M16.754 28.845c.035-.4.227-.732.436-1.063-.21-.087-.366-.26-.488-.453-.105-.174-.192-.383-.26-.575-.244-.732-.296-1.5-.366-2.248v-.453c-.087.07-.105.662-.105.75-.017.17-.052.327-.052.488 0 .535.052 1.07.122 1.604.07.465.174.93.305 1.395.06.174.12.35.21.488.07.122.174.244.26.35.105.104.227.174.366.21.035 0 .07 0 .105.017.17.017.314-.035.453-.122z" fill="#c2bfbf"/>
</svg>
