<svg xmlns="http://www.w3.org/2000/svg" viewBox="0 0 25.6 25.6">
  <g fill="none" stroke="none">
    <path fill="#336791" d="M18.983 18.636c.163-1.357.114-1.555 1.124-1.336l.257.023c.777.035 1.793-.125 2.4-.402 1.285-.596 2.047-1.592.78-1.33-2.89.596-3.1-.383-3.1-.383 3.053-4.53 4.33-10.28 3.227-11.687-3.004-3.84-8.205-2.024-8.292-1.976l-.028.005c-.57-.12-1.2-.19-1.93-.2-1.308-.02-2.3.343-3.054.914 0 0-9.277-3.822-8.846 4.807.092 1.836 2.63 13.9 5.66 10.25 1.109-1.334 2.179-2.46 2.179-2.46.53.353 1.167.533 1.834.468l.052-.044a2.01 2.01 0 0 0 .021.518c-.78.872.237 1.084.766 1.13.766.064 1.266-.45 1.315-1.023.032-.35.011-1.262.024-1.963.013-.7.018-1.355.168-1.725l.108-.03c.22-.265.377-1.322.377-1.322s-.189 1.197-.044 1.75c.145.55.25 1.113.267 1.743.02.733.06.588-.117 1.622-.175 1.033.058 1.716 1.057 1.85.434.058 1.6.086 1.872-.45.107-.225.185-.535.19-1.253l.002-.278c.031-.983.057-1.69.18-2.52.1-.646.219-1.884.219-1.884.163.74.245 1.87.224 2.674l-.07.42c-.072.428.157.678.677.737.484.054 1.046.07 1.674-.163.62-.23 1.54-1.17 1.54-1.17s-.798 2.046-1.45 2.888c-.492.63-.48.627-.48.627-.23.414-.14.75.327.987.31.16.75.25 1.26.25 1.86 0 3.14-.74 3.14-.74.33-.176.565-.362.565-.774 0-.33-.33-.46-.33-.46z"/>
    <path fill="#fff" d="M23.535 15.6c-2.89.596-3.1-.383-3.1-.383 3.053-4.53 4.33-10.28 3.228-11.687-3.004-3.84-8.205-2.023-8.292-1.976l-.028.005a10.31 10.31 0 0 0-1.929-.199c-1.308-.02-2.3.343-3.054.914 0 0-9.278-3.822-8.846 4.807.092 1.836 2.63 13.9 5.66 10.25 1.116-1.342 2.186-2.469 2.186-2.469.53.353 1.167.533 1.834.468l.052-.044a2.02 2.02 0 0 0 .021.518c-.78.872.237 1.084.766 1.13.766.064 1.266-.45 1.315-1.023.032-.35.011-1.262.024-1.963.013-.7.018-1.355.168-1.725l.108-.03c.22-.265.377-1.322.377-1.322s-.189 1.197-.044 1.75c.145.55.25 1.113.267 1.743.02.733.06.588-.117 1.622-.175 1.033.058 1.716 1.057 1.85.434.058 1.6.086 1.872-.45.107-.225.185-.535.19-1.253l.002-.278c.031-.983.057-1.69.18-2.52.1-.646.219-1.884.219-1.884.163.74.245 1.87.224 2.674l-.07.42c-.072.428.157.678.677.737.484.054 1.046.07 1.674-.163.62-.23 1.54-1.17 1.54-1.17s-.798 2.046-1.45 2.888c-.492.63-.48.627-.48.627-.23.414-.14.75.327.987.31.16.75.25 1.26.25 1.86 0 3.14-.74 3.14-.74.33-.176.565-.362.565-.774 0-.33-.33-.46-.33-.46s1.302-.597.78-1.33z"/>
    <path fill="#fff" d="M20.632 21.997c-1.758.367-3.38.21-3.582.168-.21-.045-.214-.268.054-.36 0 0 .034-.2.097-.023 1.7-.254 3.82-.28 5.18.08.217.058.36.52-.167.29-.18.08-.903-.21-1.582-.155zm-9.43-10.84c-.108.163-.687.645-.94.627-.46-.033-.843-.772-.934-1.227-.084-.42.022-1.287.334-1.18.31.108.823 1.1.925 1.41.103.33.72.205.615.37zm10.53 1.43c.505-.146.582.148.308.542-.34.49-.56.903-1.454 1.117-.953.226-2.207.187-2.764.114-.556-.073-.683-.34-.203-.38 0 0 .328-.055.668-.086 1.024-.096 1.94-.108 2.604-.338.663-.23.635-.823.842-.97z"/>
    <path fill="#fff" d="M20.038 21.056c.15.908-2.01 1.245-4.308 1.033-2.299-.212-3.542-.784-3.458-1.422.084-.636 1.87-1.435 4.243-1.15 2.373.285 3.375.632 3.524 1.54zm-7.2-10.902c.077-.57-.133-1.227-.48-1.37-.347-.142-.73.212-.807.782-.077.57.133 1.227.48 1.37.347.143.73-.212.807-.782zm8.08 3.618c-.27-.008-.72.4-1.485.705-.764.307-1.792.288-1.792.288.217-.314.292-.678.292-.678.217-.18.905-.48 1.905-.544 1-.065 1.35.237 1.35.237s-.002-.002-.27-.008z"/>
  </g>
</svg>
